<?xml version="1.0" encoding="UTF-8"?>
<!DOCTYPE svg PUBLIC "-//W3C//DTD SVG 1.1//EN" "http://www.w3.org/Graphics/SVG/1.1/DTD/svg11.dtd">
<!-- Creator: CorelDRAW X8 -->
<svg xmlns="http://www.w3.org/2000/svg" xml:space="preserve" width="210mm" height="209.973mm" version="1.1" style="shape-rendering:geometricPrecision; text-rendering:geometricPrecision; image-rendering:optimizeQuality; fill-rule:evenodd; clip-rule:evenodd"
viewBox="0 0 21000 20997"
 xmlns:xlink="http://www.w3.org/1999/xlink">
 <defs>
  <style type="text/css">
   <![CDATA[
    .fil1 {fill:#FEFEFE}
    .fil3 {fill:#FF3E00}
    .fil2 {fill:#FF4300}
    .fil0 {fill:#FF4400}
   ]]>
  </style>
 </defs>
 <g id="Capa_x0020_1">
  <metadata id="CorelCorpID_0Corel-Layer"/>
  <g id="_2164326945856">
   <path class="fil0" d="M10908 8086c1713,178 2838,428 3885,1296 526,-215 1063,-689 1860,-274 495,258 909,930 786,1657 -155,919 -644,463 -831,1722 -715,4835 -8712,5358 -11486,1893 -352,-439 -621,-1075 -719,-1759 -210,-1463 -682,-932 -840,-1859 -123,-722 297,-1390 786,-1650 1005,-533 1356,291 1915,161 809,-188 585,-858 3933,-1201l875 -3808c968,-44 1870,422 2504,404 649,-19 1112,-1053 2016,-295 591,496 430,1505 -231,1835 -323,162 -777,150 -1085,-38 -557,-340 -30,71 -422,-523 -21,-32 -43,-73 -65,-104 -334,-483 -1171,-495 -2317,-744 -78,1040 -639,2401 -564,3287zm-1717 -7983c-5996,838 -9841,6015 -9089,11769 690,5292 5647,9899 11792,9016 5285,-759 9809,-5437 9005,-11794 -669,-5292 -5615,-9842 -11708,-8991z"/>
   <path class="fil1" d="M7856 14019c970,111 1062,657 2561,673 1680,18 1679,-536 2729,-677 -190,1085 -1443,1218 -2569,1227 -601,5 -1188,-52 -1715,-220 -905,-290 -907,-466 -1006,-1003zm4694 -3447c1535,-491 1921,1625 748,2030 -1469,507 -2143,-1583 -748,-2030zm-4811 14c1559,-585 1932,1686 734,2034 -1421,413 -2084,-1529 -734,-2034zm3169 -2500c-75,-886 486,-2247 564,-3287 1146,249 1983,261 2317,744 22,31 44,72 65,104 392,594 -135,183 422,523 308,188 762,200 1085,38 661,-330 822,-1339 231,-1835 -904,-758 -1367,276 -2016,295 -634,18 -1536,-448 -2504,-404l-875 3808c-3348,343 -3124,1013 -3933,1201 -559,130 -910,-694 -1915,-161 -489,260 -909,928 -786,1650 158,927 630,396 840,1859 98,684 367,1320 719,1759 2774,3465 10771,2942 11486,-1893 187,-1259 676,-803 831,-1722 123,-727 -291,-1399 -786,-1657 -797,-415 -1334,59 -1860,274 -1047,-868 -2172,-1118 -3885,-1296z"/>
   <path class="fil2" d="M12550 10572c-1395,447 -721,2537 748,2030 1173,-405 787,-2521 -748,-2030z"/>
   <path class="fil2" d="M7739 10586c-1350,505 -687,2447 734,2034 1198,-348 825,-2619 -734,-2034z"/>
   <path class="fil3" d="M10417 14692c-1499,-16 -1591,-562 -2561,-673 99,537 101,713 1006,1003 527,168 1114,225 1715,220 1126,-9 2379,-142 2569,-1227 -1050,141 -1049,695 -2729,677z"/>
  </g>
 </g>
</svg>
