<?xml version="1.0" encoding="UTF-8"?>
<!DOCTYPE svg PUBLIC "-//W3C//DTD SVG 1.1//EN" "http://www.w3.org/Graphics/SVG/1.1/DTD/svg11.dtd">
<!-- Creator: CorelDRAW X8 -->
<svg xmlns="http://www.w3.org/2000/svg" xml:space="preserve" width="210mm" height="209.973mm" version="1.1" style="shape-rendering:geometricPrecision; text-rendering:geometricPrecision; image-rendering:optimizeQuality; fill-rule:evenodd; clip-rule:evenodd"
viewBox="0 0 21000 20997"
 xmlns:xlink="http://www.w3.org/1999/xlink">
 <defs>
  <style type="text/css">
   <![CDATA[
    .fil0 {fill:#1DABDD}
   ]]>
  </style>
 </defs>
 <g id="Capa_x0020_1">
  <metadata id="CorelCorpID_0Corel-Layer"/>
  <path class="fil0" d="M5545 19089l1789 0c418,-126 1562,-85 3064,-559 4402,-1388 7531,-5179 8337,-9629 390,-2155 -157,-2394 559,-2998 489,-412 1485,-1313 1706,-1899 -635,193 -1642,608 -2347,586 844,-520 1432,-1191 1820,-2324 -527,216 -2280,1239 -2847,893 -161,-98 -340,-313 -563,-465 -1067,-730 -1129,-465 -2071,-786l-895 0c-662,248 -1033,192 -1705,576 -1687,963 -2389,2702 -2068,4756 -1947,-123 -3881,-689 -5304,-1516 -1863,-1083 -2147,-1476 -3471,-2822 -176,-179 8,-51 -227,-176 -390,1226 -796,1823 -354,3388 367,1298 978,1626 1659,2373 -697,-50 -1328,-243 -1845,-515 -152,1176 524,2193 1014,2846 719,959 1665,1129 2377,1455 -821,176 -1035,103 -1867,90 470,1797 2206,2852 3995,2986 -1423,1225 -3823,2019 -6301,1808 1029,794 2587,1346 3937,1648 512,114 1171,123 1608,284z"/>
 </g>
</svg>
