<?xml version="1.0" encoding="UTF-8"?>
<!DOCTYPE svg PUBLIC "-//W3C//DTD SVG 1.1//EN" "http://www.w3.org/Graphics/SVG/1.1/DTD/svg11.dtd">
<!-- Creator: CorelDRAW X8 -->
<svg xmlns="http://www.w3.org/2000/svg" xml:space="preserve" width="210mm" height="209.973mm" version="1.1" style="shape-rendering:geometricPrecision; text-rendering:geometricPrecision; image-rendering:optimizeQuality; fill-rule:evenodd; clip-rule:evenodd"
viewBox="0 0 21000 20997"
 xmlns:xlink="http://www.w3.org/1999/xlink">
 <defs>
  <style type="text/css">
   <![CDATA[
    .fil0 {fill:black}
   ]]>
  </style>
 </defs>
 <g id="Capa_x0020_1">
  <metadata id="CorelCorpID_0Corel-Layer"/>
  <path class="fil0" d="M7868 18290c-4278,419 -2915,-1566 -4652,-2765 -1093,-755 123,-885 1024,-275 434,294 512,602 849,1055 883,1183 2528,745 2774,479 118,-171 140,-487 240,-711 137,-306 228,-405 401,-641 -494,-256 -1500,-137 -2616,-810 -769,-464 -1264,-955 -1635,-1837 -727,-1729 -746,-3906 608,-5389 -271,-870 -313,-1248 -105,-2159 31,-132 142,-590 254,-648 798,-84 2026,536 2539,884 445,302 766,68 1362,-31 504,-83 1092,-118 1612,-116 525,2 1101,39 1608,129 645,114 818,324 1344,-5 307,-193 2245,-1301 2568,-719 547,984 152,2185 108,2570 -42,372 1440,1149 945,4154 -442,2681 -1955,3502 -4648,3939 372,631 631,749 659,1940 74,3099 -484,4003 1628,3058 6247,-2796 8169,-10589 4181,-15940 -3645,-4892 -10620,-5510 -15054,-1874 -1623,1331 -3567,3796 -3822,7000 -258,3232 736,6578 3164,8749 157,141 178,165 340,339 531,574 3304,2306 4019,2047 398,-144 318,-649 309,-1061 -9,-453 -2,-909 -4,-1362z"/>
 </g>
</svg>
