<?xml version="1.0" encoding="UTF-8"?>
<!DOCTYPE svg PUBLIC "-//W3C//DTD SVG 1.1//EN" "http://www.w3.org/Graphics/SVG/1.1/DTD/svg11.dtd">
<!-- Creator: CorelDRAW X8 -->
<svg xmlns="http://www.w3.org/2000/svg" xml:space="preserve" width="210mm" height="209.973mm" version="1.1" style="shape-rendering:geometricPrecision; text-rendering:geometricPrecision; image-rendering:optimizeQuality; fill-rule:evenodd; clip-rule:evenodd"
viewBox="0 0 21000 20997"
 xmlns:xlink="http://www.w3.org/1999/xlink">
 <defs>
  <style type="text/css">
   <![CDATA[
    .fil0 {fill:red}
    .fil1 {fill:white}
   ]]>
  </style>
 </defs>
 <g id="Capa_x0020_1">
  <metadata id="CorelCorpID_0Corel-Layer"/>
  <g id="_2164323466784">
   <path class="fil0" d="M8393 7333c118,57 232,129 349,198l4424 2565c118,67 228,132 341,198 94,54 272,147 338,205 -62,57 -1234,721 -1359,797 -883,532 -1844,1049 -2723,1578l-1370 790 0 -6331zm5601 10503c156,0 326,5 456,-12 82,-11 689,-9 884,-35l880 -39c120,-4 297,-29 416,-35 664,-32 1809,-126 2396,-362 586,-236 1173,-780 1404,-1353 45,-111 91,-206 129,-339 145,-506 207,-1043 272,-1567 15,-115 37,-283 46,-405l106 -1733c-1,-161 17,-265 17,-434l0 -2029c0,-337 -58,-1389 -88,-1769l-82 -837c-107,-972 -215,-1940 -933,-2658l-45 -41c-43,-39 -71,-73 -114,-112l-409 -285c-98,-52 -203,-106 -303,-147 -585,-235 -1736,-331 -2396,-362 -126,-6 -306,-33 -433,-35 -159,-2 -269,-12 -435,-16l-2652 -104c-466,0 -879,-18 -1336,-18l-2583 0c-653,0 -1289,35 -1943,34 -110,0 -142,17 -242,18 -80,1 -162,0 -243,0 -265,0 -666,35 -937,34l-467 19c-479,39 -1178,59 -1618,115 -711,91 -1175,73 -1853,350 -195,79 -464,250 -609,380 -189,168 -331,297 -474,514 -159,240 -158,234 -267,479 -209,474 -309,1296 -377,1826 -37,292 -45,630 -79,893l-64 923c-5,79 3,165 -1,243 -4,82 -17,122 -17,226l18 2948c0,419 50,766 68,1163 29,613 118,1215 209,1769 181,1102 652,1855 1641,2296 398,178 1381,314 1897,341l1370 87c97,1 121,17 224,18 562,3 1344,68 1908,69 645,1 1276,35 1925,35l2480 0c469,0 893,-18 1370,-18l884 -35z"/>
   <path class="fil1" d="M8393 13664l1370 -790c879,-529 1840,-1046 2723,-1578 125,-76 1297,-740 1359,-797 -66,-58 -244,-151 -338,-205 -113,-66 -223,-131 -341,-198l-4424 -2565c-117,-69 -231,-141 -349,-198l0 6331z"/>
  </g>
 </g>
</svg>
