<?xml version="1.0" encoding="UTF-8"?>
<!DOCTYPE svg PUBLIC "-//W3C//DTD SVG 1.1//EN" "http://www.w3.org/Graphics/SVG/1.1/DTD/svg11.dtd">
<!-- Creator: CorelDRAW X8 -->
<svg xmlns="http://www.w3.org/2000/svg" xml:space="preserve" width="210mm" height="209.973mm" version="1.1" style="shape-rendering:geometricPrecision; text-rendering:geometricPrecision; image-rendering:optimizeQuality; fill-rule:evenodd; clip-rule:evenodd"
viewBox="0 0 21000 20997"
 xmlns:xlink="http://www.w3.org/1999/xlink">
 <defs>
  <style type="text/css">
   <![CDATA[
    .fil0 {fill:#B3B3B3}
   ]]>
  </style>
 </defs>
 <g id="Capa_x0020_1">
  <metadata id="CorelCorpID_0Corel-Layer"/>
  <g id="_2164321910496">
   <path class="fil0" d="M16435 11030c0,-1320 530,-2491 1432,-3279 202,-176 662,-549 906,-664 -54,-183 -624,-756 -816,-912 -307,-250 -609,-458 -1039,-662 -734,-349 -1893,-619 -2855,-513 -972,108 -1796,477 -2654,763 -623,207 -729,261 -1388,58 -433,-133 -841,-294 -1260,-440 -1008,-353 -1801,-475 -2912,-191 -423,108 -874,284 -1226,490 -640,374 -1181,806 -1619,1381 -905,1186 -1342,2596 -1341,4185 0,1960 498,3651 1265,5328 589,1287 1758,2907 2742,3745 449,383 884,589 1499,670 483,63 1346,-234 1748,-391 1254,-488 2218,-647 3572,-161 548,196 1016,420 1660,503 714,92 1250,-108 1722,-395 997,-608 2287,-2478 2848,-3638 114,-237 601,-1321 618,-1524 -188,-105 -317,-133 -597,-302 -200,-122 -374,-244 -535,-374 -1110,-898 -1770,-2079 -1770,-3677z"/>
   <path class="fil0" d="M14903 1c-236,-14 -778,126 -977,190 -1434,465 -2485,1421 -3082,2786 -182,416 -315,941 -336,1421 -4,86 -12,520 30,559 39,36 473,8 544,0 1022,-104 2002,-769 2607,-1499 387,-465 672,-841 915,-1435 267,-652 354,-1231 299,-2022z"/>
  </g>
 </g>
</svg>
