<?xml version="1.0" encoding="UTF-8"?>
<!DOCTYPE svg PUBLIC "-//W3C//DTD SVG 1.1//EN" "http://www.w3.org/Graphics/SVG/1.1/DTD/svg11.dtd">
<!-- Creator: CorelDRAW X8 -->
<svg xmlns="http://www.w3.org/2000/svg" xml:space="preserve" width="210mm" height="209.973mm" version="1.1" style="shape-rendering:geometricPrecision; text-rendering:geometricPrecision; image-rendering:optimizeQuality; fill-rule:evenodd; clip-rule:evenodd"
viewBox="0 0 21000 20997"
 xmlns:xlink="http://www.w3.org/1999/xlink">
 <defs>
  <style type="text/css">
   <![CDATA[
    .fil0 {fill:#007BB6}
    .fil1 {fill:#FEFEFE}
   ]]>
  </style>
 </defs>
 <g id="Capa_x0020_1">
  <metadata id="CorelCorpID_0Corel-Layer"/>
  <g id="_2164326941152">
   <path class="fil0" d="M3110 17858c-56,-783 -7,-1754 -7,-2557l0 -6381c0,-217 1,-434 0,-651 -1,-482 -34,-414 185,-415l2937 -4 0 10017c-817,2 -2445,35 -3115,-9zm8053 -8635c97,-71 266,-400 527,-659 634,-626 1544,-973 2537,-954 3644,69 3649,2819 3649,5640 0,1524 39,3101 -2,4618l-3113 -13c13,-1533 2,-3072 2,-4605 0,-1506 -30,-2982 -1742,-2897 -1587,79 -1737,1372 -1736,2897 0,1535 -6,3072 1,4617l-3111 0 8 -10013 2979 1 1 1368zm-6855 -6299c1102,-214 1960,534 2129,1416 208,1081 -542,1937 -1382,2114 -1100,231 -1979,-514 -2158,-1404 -221,-1093 513,-1951 1411,-2126zm-3832 -2529c-44,82 1,39 -85,78 -52,128 -158,217 -231,368 -34,70 -56,125 -80,211l-80 210 0 18400c72,133 92,326 159,462 85,171 187,265 268,394l58 52c396,240 100,126 572,312l97 51 18652 0c118,-74 262,-96 381,-160 148,-80 225,-164 345,-222l16 -21c64,-122 124,-168 193,-276 92,-144 108,-231 177,-288l44 -312c65,-713 28,-1697 20,-2433 -10,-810 -8,-1631 -3,-2441 18,-3246 -21,-6524 0,-9767 3,-466 29,-3326 -17,-3680 -66,-502 -212,-564 -388,-877l-41 -42c-135,-60 -241,-182 -431,-265l-164 -84 -18899 0c-76,55 -198,94 -298,154 -109,66 -166,127 -265,176z"/>
   <path class="fil1" d="M11163 9223l-1 -1368 -2979 -1 -8 10013 3111 0c-7,-1545 -1,-3082 -1,-4617 -1,-1525 149,-2818 1736,-2897 1712,-85 1742,1391 1742,2897 0,1533 11,3072 -2,4605l3113 13c41,-1517 2,-3094 2,-4618 0,-2821 -5,-5571 -3649,-5640 -993,-19 -1903,328 -2537,954 -261,259 -430,588 -527,659z"/>
   <path class="fil1" d="M3110 17858c670,44 2298,11 3115,9l0 -10017 -2937 4c-219,1 -186,-67 -185,415 1,217 0,434 0,651l0 6381c0,803 -49,1774 7,2557z"/>
   <path class="fil1" d="M4308 2924c-898,175 -1632,1033 -1411,2126 179,890 1058,1635 2158,1404 840,-177 1590,-1033 1382,-2114 -169,-882 -1027,-1630 -2129,-1416z"/>
  </g>
 </g>
</svg>
