<?xml version="1.0" encoding="UTF-8"?>
<!DOCTYPE svg PUBLIC "-//W3C//DTD SVG 1.1//EN" "http://www.w3.org/Graphics/SVG/1.1/DTD/svg11.dtd">
<!-- Creator: CorelDRAW X8 -->
<svg xmlns="http://www.w3.org/2000/svg" xml:space="preserve" width="210mm" height="209.973mm" version="1.1" style="shape-rendering:geometricPrecision; text-rendering:geometricPrecision; image-rendering:optimizeQuality; fill-rule:evenodd; clip-rule:evenodd"
viewBox="0 0 21000 20997"
 xmlns:xlink="http://www.w3.org/1999/xlink">
 <defs>
  <style type="text/css">
   <![CDATA[
    .fil1 {fill:#34A853}
    .fil2 {fill:#4285F3}
    .fil0 {fill:#E94335}
    .fil3 {fill:#FBBC05}
   ]]>
  </style>
 </defs>
 <g id="Capa_x0020_1">
  <metadata id="CorelCorpID_0Corel-Layer"/>
  <g id="_2164316611856">
   <path class="fil0" d="M1319 5844l3462 2655c36,27 23,21 62,38 43,-78 93,-247 130,-340 646,-1636 2030,-2985 3680,-3547 1813,-618 3787,-439 5391,615l570 401 3041 -3044c-28,-43 -150,-137 -195,-174 -79,-64 -135,-111 -215,-173 -480,-375 -841,-619 -1395,-938 -2289,-1317 -5046,-1659 -7655,-1034 -1681,403 -3079,1210 -4133,2073 -965,790 -1878,1859 -2477,2952 -77,142 -212,361 -266,516z"/>
   <path class="fil1" d="M1319 15147c69,208 424,789 552,995 489,789 1018,1380 1659,2003 1223,1189 2953,2132 4626,2537 2631,636 5333,314 7655,-998 342,-193 637,-395 934,-606 213,-152 673,-525 848,-705 -56,-12 -167,-111 -218,-152 -365,-293 -3093,-2371 -3134,-2440 -705,472 -1730,794 -2755,888 -1903,175 -3447,-341 -4820,-1482 -457,-380 -949,-990 -1249,-1490 -278,-464 -386,-747 -572,-1251l-1764 1346c-294,229 -589,450 -882,674 -147,113 -286,226 -439,338 -133,98 -327,235 -441,343z"/>
   <path class="fil2" d="M14241 15781c41,69 2769,2147 3134,2440 51,41 162,140 218,152 151,-128 276,-258 410,-403 198,-215 393,-427 572,-659 694,-901 1201,-1804 1586,-2952 585,-1749 813,-3868 366,-5771l-9784 -2 -2 4061 5631 0c-98,669 -473,1395 -784,1855 -317,469 -838,968 -1347,1279z"/>
   <path class="fil3" d="M1319 15147c114,-108 308,-245 441,-343 153,-112 292,-225 439,-338 293,-224 588,-445 882,-674l1764 -1346c-352,-1141 -421,-2290 -125,-3465 36,-143 99,-312 123,-444 -39,-17 -26,-11 -62,-38l-3462 -2655c-61,82 -177,362 -228,481 -71,167 -141,341 -203,510 -861,2374 -871,4938 -4,7312 75,205 335,875 435,1000z"/>
  </g>
 </g>
</svg>
