<?xml version="1.0" encoding="UTF-8"?>
<!DOCTYPE svg PUBLIC "-//W3C//DTD SVG 1.1//EN" "http://www.w3.org/Graphics/SVG/1.1/DTD/svg11.dtd">
<!-- Creator: CorelDRAW X8 -->
<svg xmlns="http://www.w3.org/2000/svg" xml:space="preserve" width="210mm" height="209.973mm" version="1.1" style="shape-rendering:geometricPrecision; text-rendering:geometricPrecision; image-rendering:optimizeQuality; fill-rule:evenodd; clip-rule:evenodd"
viewBox="0 0 21000 20997"
 xmlns:xlink="http://www.w3.org/1999/xlink">
 <defs>
  <style type="text/css">
   <![CDATA[
    .str0 {stroke:black;stroke-width:20}
    .fil1 {fill:#1977F3}
    .fil2 {fill:#CDD7E5}
    .fil0 {fill:white}
   ]]>
  </style>
 </defs>
 <g id="Capa_x0020_1">
  <metadata id="CorelCorpID_0Corel-Layer"/>
  <rect class="fil0 str0" x="6305" y="1605" width="11766" height="19393"/>
  <path class="fil1" d="M10287 20989l2 -8846 -1813 -9 9 -3635 1795 -1c0,-1720 -191,-3483 1324,-4678 1102,-870 2430,-734 3794,-735 360,0 1178,-30 1488,22l4 3086c-571,95 -2031,-108 -2441,104 -568,295 -393,1478 -394,2201l2889 9 -8 3635 -3020 1 2 8846c1684,0 3368,-3 5052,0 853,2 1373,-257 1725,-787 403,-607 291,-1392 291,-2204l0 -15060c0,-854 117,-1535 -321,-2173 -371,-539 -883,-746 -1769,-745l-15060 0c-573,0 -2007,-67 -2471,45 -627,150 -1109,627 -1282,1218 -132,450 -67,1861 -67,2428l0 15023c0,660 -9,1365 639,1855 642,487 1186,400 2113,400 2506,0 5013,0 7519,0z"/>
  <path class="fil2" d="M13858 12093l3007 -1 9 -3621 -2878 -9c178,90 2589,37 2842,37l0 3557 -2604 0c-145,0 -270,-23 -376,37z"/>
  <path class="fil2" d="M10246 12093c-141,-80 -1616,-37 -1769,-37l0 -3557 1652 2c189,-23 38,6 108,-39l-1788 1 -8 3621 1805 9z"/>
 </g>
</svg>
