<?xml version="1.0" encoding="UTF-8"?>
<!DOCTYPE svg PUBLIC "-//W3C//DTD SVG 1.1//EN" "http://www.w3.org/Graphics/SVG/1.1/DTD/svg11.dtd">
<!-- Creator: CorelDRAW X8 -->
<svg xmlns="http://www.w3.org/2000/svg" xml:space="preserve" width="210mm" height="209.973mm" version="1.1" style="shape-rendering:geometricPrecision; text-rendering:geometricPrecision; image-rendering:optimizeQuality; fill-rule:evenodd; clip-rule:evenodd"
viewBox="0 0 21000 20997"
 xmlns:xlink="http://www.w3.org/1999/xlink">
 <defs>
  <style type="text/css">
   <![CDATA[
    .fil0 {fill:black}
    .fil3 {fill:#24F3ED}
    .fil2 {fill:#FD2B54}
    .fil1 {fill:#FEFEFE}
   ]]>
  </style>
 </defs>
 <g id="Capa_x0020_1">
  <metadata id="CorelCorpID_0Corel-Layer"/>
  <g id="_2164326189424">
   <path class="fil0" d="M5078 17094l-322 -320c-1406,-1157 -2254,-3624 -1190,-5868 424,-893 1151,-1670 1903,-2113 834,-491 2077,-919 3282,-674l17 641 650 39c128,337 58,2336 32,2837 -681,-53 -1573,-267 -2353,678 -790,957 -546,1710 -251,2550l85 107c581,219 929,415 1681,231 2072,-507 1662,-2906 1662,-4533 0,-1362 -72,-7375 14,-8178l2652 -7 69 696 615 3c98,470 69,743 226,1211 140,418 329,653 480,975l149 150c749,377 1082,651 2167,684l20 620 16 21 668 68 13 2640c-787,117 -2078,-278 -2817,-634 -278,-134 -538,-339 -775,-428 -33,1690 -3,3411 -2,5104 1,5016 -5907,6763 -8691,3500zm-529 -17046c-1729,190 -2735,697 -3520,1725 -973,1274 -1003,2388 -1003,4251 0,1739 0,3479 0,5219 0,1030 -48,4489 22,5241 157,1692 806,2780 1728,3483 1269,967 2384,1011 4250,1010 1191,0 9503,60 10458,-28 1690,-156 2794,-818 3484,-1729 976,-1287 1006,-2371 1005,-4249 0,-1740 0,-3480 1,-5219 0,-880 0,-1759 0,-2639 -1,-817 49,-1805 -24,-2600 -153,-1676 -810,-2790 -1725,-3487 -1272,-968 -2380,-1009 -4252,-1009l-7857 0c-820,0 -1787,-54 -2567,31z"/>
   <path class="fil1" d="M6931 14971l-85 -107c-1072,-480 -1590,-2872 272,-3794 647,-321 953,-187 1643,-132l7 -2178c-3688,51 -5887,3673 -4636,6845 236,598 531,941 624,1169l322 320c462,187 575,462 1612,766 678,200 1421,256 2143,143 1451,-226 2429,-986 3076,-1737 824,-957 1165,-2037 1164,-3647 -1,-1607 -4,-3215 0,-4823 545,235 911,538 1602,763 464,151 1443,375 1984,298l23 -2013 -16 -21c-997,-162 -1727,-737 -2187,-1304l-149 -150c-653,-539 -1046,-1123 -1321,-2189l-2019 10c-67,443 -18,8180 -18,8856 0,1585 162,2793 -957,3530 -1134,746 -2575,285 -3084,-605z"/>
   <path class="fil2" d="M5078 17094c2784,3263 8692,1516 8691,-3500 -1,-1693 -31,-3414 2,-5104 237,89 497,294 775,428 739,356 2030,751 2817,634l-13 -2640 -668 -68 -23 2013c-541,77 -1520,-147 -1984,-298 -691,-225 -1057,-528 -1602,-763 -4,1608 -1,3216 0,4823 1,1610 -340,2690 -1164,3647 -647,751 -1625,1511 -3076,1737 -722,113 -1465,57 -2143,-143 -1037,-304 -1150,-579 -1612,-766z"/>
   <path class="fil3" d="M6931 14971c509,890 1950,1351 3084,605 1119,-737 957,-1945 957,-3530 0,-676 -49,-8413 18,-8856l2019 -10 -69 -696 -2652 7c-86,803 -14,6816 -14,8178 0,1627 410,4026 -1662,4533 -752,184 -1100,-12 -1681,-231z"/>
   <path class="fil3" d="M4756 16774c-93,-228 -388,-571 -624,-1169 -1251,-3172 948,-6794 4636,-6845l-17 -641c-1205,-245 -2448,183 -3282,674 -752,443 -1479,1220 -1903,2113 -1064,2244 -216,4711 1190,5868z"/>
   <path class="fil2" d="M6846 14864c-295,-840 -539,-1593 251,-2550 780,-945 1672,-731 2353,-678 26,-501 96,-2500 -32,-2837l-650 -39 -7 2178c-690,-55 -996,-189 -1643,132 -1862,922 -1344,3314 -272,3794z"/>
   <path class="fil2" d="M14330 5369c-151,-322 -340,-557 -480,-975 -157,-468 -128,-741 -226,-1211l-615 -3c275,1066 668,1650 1321,2189z"/>
   <path class="fil3" d="M16666 6823l-20 -620c-1085,-33 -1418,-307 -2167,-684 460,567 1190,1142 2187,1304z"/>
  </g>
 </g>
</svg>
