<?xml version="1.0" encoding="UTF-8"?>
<!DOCTYPE svg PUBLIC "-//W3C//DTD SVG 1.1//EN" "http://www.w3.org/Graphics/SVG/1.1/DTD/svg11.dtd">
<!-- Creator: CorelDRAW X8 -->
<svg xmlns="http://www.w3.org/2000/svg" xml:space="preserve" width="210mm" height="209.973mm" version="1.1" style="shape-rendering:geometricPrecision; text-rendering:geometricPrecision; image-rendering:optimizeQuality; fill-rule:evenodd; clip-rule:evenodd"
viewBox="0 0 21000 20997"
 xmlns:xlink="http://www.w3.org/1999/xlink">
 <defs>
  <style type="text/css">
   <![CDATA[
    .fil0 {fill:#26A4E3}
    .fil1 {fill:#FEFEFE}
   ]]>
  </style>
 </defs>
 <g id="Capa_x0020_1">
  <metadata id="CorelCorpID_0Corel-Layer"/>
  <g id="_2164316237296">
   <path class="fil0" d="M12545 8716c-260,-78 -442,99 -624,218l-1564 1028c-696,459 -1396,926 -2079,1399 -998,691 -1161,850 -2594,477 -417,-108 -945,-270 -1318,-421 -655,-266 -417,-640 70,-881 772,-380 1624,-703 2419,-1058 1319,-589 6237,-2726 7354,-3046 508,-146 1082,-268 1154,391 85,766 -934,6509 -1133,7572 -362,1930 -1042,1552 -2313,657l-1551 -1040c-1606,-1107 -1931,-1093 -744,-2226l892 -846c84,-75 144,-124 229,-198 90,-79 123,-126 211,-215 150,-149 312,-271 468,-419 79,-75 126,-145 205,-220l648 -633c202,-222 350,-263 270,-539zm-12544 1164l0 1180c39,106 96,877 129,1084 147,929 455,2008 861,2812 1401,2775 3577,4796 6649,5653 315,88 648,164 985,226 265,49 911,78 1098,162l1611 0 58 -20c8,-2 19,-6 29,-8l443 -52c534,-70 1012,-170 1524,-313 618,-174 1215,-410 1755,-674 3004,-1471 5173,-4356 5717,-7670 36,-216 96,-977 139,-1097l0 -1328c-18,-50 -155,-1384 -367,-2120 -190,-661 -393,-1202 -671,-1789 -271,-572 -602,-1108 -933,-1559 -1061,-1445 -2297,-2536 -4051,-3367 -894,-425 -1824,-718 -2833,-875 -227,-35 -946,-80 -1080,-125l-1127 0c-145,49 -864,91 -1106,131 -2216,364 -4178,1380 -5737,2929 -405,403 -774,839 -1146,1347 -355,485 -611,973 -913,1549 -405,773 -753,1938 -896,2844 -39,241 -76,923 -138,1080z"/>
   <path class="fil1" d="M12545 8716c80,276 -68,317 -270,539l-648 633c-79,75 -126,145 -205,220 -156,148 -318,270 -468,419 -88,89 -121,136 -211,215 -85,74 -145,123 -229,198l-892 846c-1187,1133 -862,1119 744,2226l1551 1040c1271,895 1951,1273 2313,-657 199,-1063 1218,-6806 1133,-7572 -72,-659 -646,-537 -1154,-391 -1117,320 -6035,2457 -7354,3046 -795,355 -1647,678 -2419,1058 -487,241 -725,615 -70,881 373,151 901,313 1318,421 1433,373 1596,214 2594,-477 683,-473 1383,-940 2079,-1399l1564 -1028c182,-119 364,-296 624,-218z"/>
  </g>
 </g>
</svg>
