<?xml version="1.0" encoding="UTF-8"?>
<!DOCTYPE svg PUBLIC "-//W3C//DTD SVG 1.1//EN" "http://www.w3.org/Graphics/SVG/1.1/DTD/svg11.dtd">
<!-- Creator: CorelDRAW X8 -->
<svg xmlns="http://www.w3.org/2000/svg" xml:space="preserve" width="210mm" height="209.973mm" version="1.1" style="shape-rendering:geometricPrecision; text-rendering:geometricPrecision; image-rendering:optimizeQuality; fill-rule:evenodd; clip-rule:evenodd"
viewBox="0 0 21000 20997"
 xmlns:xlink="http://www.w3.org/1999/xlink">
 <defs>
  <style type="text/css">
   <![CDATA[
    .fil2 {fill:black}
    .fil3 {fill:#8A8900}
    .fil1 {fill:#FEFEFE}
    .fil0 {fill:#FFFC00}
   ]]>
  </style>
 </defs>
 <g id="Capa_x0020_1">
  <metadata id="CorelCorpID_0Corel-Layer"/>
  <path class="fil0" d="M14799 8666l-33 433c10,13 26,77 56,98 712,9 1012,-504 1687,-70 191,123 362,382 232,702 -284,699 -1697,635 -1860,1206 -152,532 1156,2655 2985,3075 317,73 585,136 491,527 -170,710 -1944,823 -2083,934 -141,243 -100,569 -245,805 -320,517 -1549,-318 -2648,284 -969,529 -1401,1251 -2925,1244 -2352,-11 -2053,-1874 -4734,-1377 -886,164 -808,-231 -976,-968 -530,-63 -2066,-332 -2121,-996 -67,-805 1268,79 2904,-2167 1346,-1848 108,-1640 -772,-2104 -245,-129 -450,-257 -523,-523 -92,-333 109,-557 283,-660 623,-369 914,113 1657,86 72,-124 50,-23 43,-225 -4,-92 -15,-121 -13,-222 133,-1217 -499,-2328 808,-4100 1452,-1969 5203,-2168 6938,-49 1317,1610 726,3039 849,4067zm-14798 -4110l0 11928c165,375 17,1871 1385,3173 1474,1403 2701,1138 3168,1340l11809 0c299,-121 913,-37 1860,-412 581,-229 1044,-599 1387,-933 599,-583 1020,-1311 1219,-2194 62,-275 75,-801 170,-1017l0 -11720c-69,-190 -83,-763 -139,-1035 -303,-1447 -1200,-2666 -2569,-3253 -948,-407 -1600,-326 -1879,-433l-11867 0c-314,117 -940,36 -1838,431 -2676,1174 -2573,3824 -2706,4125z"/>
  <path class="fil1" d="M6614 9373c-1016,597 -1451,-398 -2019,152 -192,435 1245,694 1594,998 621,541 187,1234 -163,1800 -505,817 -1184,1473 -2017,1876 -373,181 -604,191 -987,324 78,365 939,518 1363,599 336,64 556,24 683,283 110,223 117,540 226,780 443,65 1546,-495 2816,335 718,468 1219,1017 2390,1016 1113,0 1715,-563 2393,-1013 1156,-767 1866,-344 2823,-329 42,-193 122,-585 197,-764 123,-290 349,-242 701,-310 415,-80 1277,-262 1361,-597 -778,-271 -938,-177 -1769,-807 -435,-330 -900,-849 -1235,-1389 -1587,-2551 1447,-1823 1432,-2799 -633,-600 -995,433 -2021,-152 -50,-745 108,-1612 66,-2421 -47,-871 -209,-1293 -615,-1889 -1800,-2642 -7051,-2046 -7283,1845 -49,822 118,1710 64,2462z"/>
  <path class="fil2" d="M6614 9373c54,-752 -113,-1640 -64,-2462 232,-3891 5483,-4487 7283,-1845 406,596 568,1018 615,1889 42,809 -116,1676 -66,2421 1026,585 1388,-448 2021,152 15,976 -3019,248 -1432,2799 335,540 800,1059 1235,1389 831,630 991,536 1769,807 -84,335 -946,517 -1361,597 -352,68 -578,20 -701,310 -75,179 -155,571 -197,764 -957,-15 -1667,-438 -2823,329 -678,450 -1280,1013 -2393,1013 -1171,1 -1672,-548 -2390,-1016 -1270,-830 -2373,-270 -2816,-335 -109,-240 -116,-557 -226,-780 -127,-259 -347,-219 -683,-283 -424,-81 -1285,-234 -1363,-599 383,-133 614,-143 987,-324 833,-403 1512,-1059 2017,-1876 350,-566 784,-1259 163,-1800 -349,-304 -1786,-563 -1594,-998 568,-550 1003,445 2019,-152zm-410 -625c67,116 62,232 60,402l-90 45c-743,27 -1034,-455 -1657,-86 -174,103 -375,327 -283,660 73,266 278,394 523,523 880,464 2118,256 772,2104 -1636,2246 -2971,1362 -2904,2167 55,664 1591,933 2121,996 168,737 90,1132 976,968 2681,-497 2382,1366 4734,1377 1524,7 1956,-715 2925,-1244 1099,-602 2328,233 2648,-284 145,-236 104,-562 245,-805 139,-111 1913,-224 2083,-934 94,-391 -174,-454 -491,-527 -1829,-420 -3137,-2543 -2985,-3075 163,-571 1576,-507 1860,-1206 130,-320 -41,-579 -232,-702 -675,-434 -975,79 -1687,70l-90 -54c-5,-158 1,-369 67,-477 -123,-1028 468,-2457 -849,-4067 -1735,-2119 -5486,-1920 -6938,49 -1307,1772 -675,2883 -808,4100z"/>
  <path class="fil3" d="M14822 9197c-30,-21 -46,-85 -56,-98l33 -433c-66,108 -72,319 -67,477l90 54z"/>
  <path class="fil3" d="M6174 9195l90 -45c2,-170 7,-286 -60,-402 -2,101 9,130 13,222 7,202 29,101 -43,225z"/>
 </g>
</svg>
